<?xml version="1.0" encoding="UTF-8" standalone="no"?>
<!-- Created with Inkscape (http://www.inkscape.org/) -->

<svg
   xmlns:dc="http://purl.org/dc/elements/1.1/"
   xmlns:cc="http://creativecommons.org/ns#"
   xmlns:rdf="http://www.w3.org/1999/02/22-rdf-syntax-ns#"
   xmlns:svg="http://www.w3.org/2000/svg"
   xmlns="http://www.w3.org/2000/svg"
   xmlns:sodipodi="http://sodipodi.sourceforge.net/DTD/sodipodi-0.dtd"
   xmlns:inkscape="http://www.inkscape.org/namespaces/inkscape"
   width="282.22223mm"
   height="248.67566mm"
   viewBox="0 0 1000 881.13418"
   id="svg2"
   version="1.1"
   inkscape:version="0.91 r13725"
   sodipodi:docname="emblem.svg"
   inkscape:export-filename="C:\Users\jayec\Documents\GitHub\syampuuh.github.io\Aegis\Ronin\emblem.png"
   inkscape:export-xdpi="90.018364"
   inkscape:export-ydpi="90.018364">
  <defs
     id="defs4" />
  <sodipodi:namedview
     id="base"
     pagecolor="#ffffff"
     bordercolor="#666666"
     borderopacity="1.0"
     inkscape:pageopacity="0.0"
     inkscape:pageshadow="2"
     inkscape:zoom="1"
     inkscape:cx="662.4321"
     inkscape:cy="620.53923"
     inkscape:document-units="px"
     inkscape:current-layer="layer1"
     showgrid="false"
     fit-margin-top="0"
     fit-margin-left="0"
     fit-margin-right="0"
     fit-margin-bottom="0"
     inkscape:window-width="2560"
     inkscape:window-height="1247"
     inkscape:window-x="-8"
     inkscape:window-y="-8"
     inkscape:window-maximized="1" />
  <metadata
     id="metadata7">
    <rdf:RDF>
      <cc:Work
         rdf:about="">
        <dc:format>image/svg+xml</dc:format>
        <dc:type
           rdf:resource="http://purl.org/dc/dcmitype/StillImage" />
        <dc:title />
      </cc:Work>
    </rdf:RDF>
  </metadata>
  <g
     inkscape:label="Layer 1"
     inkscape:groupmode="layer"
     id="layer1"
     transform="translate(41.240816,-57.211972)">
    <path
       style="fill:#be1515;opacity:0.5"
       d="m 786.90655,60.19985 -1.96871,1.0534 c -1.08307,0.579586 -67.94157,67.35938 -148.57333,148.39807 -80.63169,81.03866 -146.7307,147.90876 -146.88706,148.60218 l -0.28447,1.26161 3.69412,4.22187 c 2.03185,2.32202 3.7036,4.78815 3.71475,5.48141 0.0111,0.69326 -1.0982,2.56217 -2.46551,4.15177 l -2.48611,2.89017 -9.17555,-1.36469 -9.17555,-1.36468 -2.05938,1.86356 c -1.13268,1.02507 -2.0594,2.40877 -2.0594,3.07568 l 0,1.21214 3.73948,3.62611 3.73949,3.62403 -0.30922,2.5459 -0.30923,2.54796 -2.83243,2.10476 -2.83244,2.10474 -5.61129,-1.25749 c -3.08622,-0.69186 -6.69672,-1.53266 -8.02319,-1.86767 l -2.41191,-0.60813 -2.07382,1.87592 -2.07382,1.87799 0,1.76254 0,1.76461 2.73555,2.55826 c 1.50456,1.40733 3.1836,3.38946 3.73123,4.40535 l 0.99568,1.84706 -1.11731,2.08619 c -0.61423,1.14771 -2.11179,2.61997 -3.32925,3.27154 l -2.214,1.18533 -8.29118,-1.34612 -8.29324,-1.3482 -2.13567,1.93365 c -1.17471,1.06311 -2.1244,2.4524 -2.11093,3.08806 0.0135,0.63566 1.69744,3.01532 3.7436,5.28763 l 3.72092,4.13116 -0.31332,2.0965 -0.31542,2.09445 -2.87573,2.13979 -2.87367,2.13773 -7.68098,-1.67802 -7.67893,-1.67803 -2.3748,1.51723 -2.3748,1.51724 0,2.02641 0,2.02847 3.69,4.01778 c 2.029,2.2092 3.69137,4.34452 3.69413,4.74753 0.004,0.403 -1.06452,1.96283 -2.37066,3.46531 l -2.3748,2.73143 -3.16639,0.0453 c -1.74153,0.0251 -5.92106,-0.51655 -9.28893,-1.20388 l -6.1246,-1.24926 -2.05527,1.86152 c -1.13104,1.02359 -2.05733,2.40382 -2.05733,3.06744 0,0.66361 1.6478,2.84678 3.66115,4.8506 l 3.65908,3.6426 0.0351,2.19133 0.0329,2.19132 -2.56033,2.40366 -2.56032,2.40572 -5.61954,-0.76892 c -3.09103,-0.42281 -6.72029,-1.18605 -8.06442,-1.69452 l -2.44283,-0.92353 -2.01816,1.08021 c -1.1097,0.59389 -2.51816,2.01419 -3.12929,3.15609 l -1.11113,2.07589 4.42802,4.80318 4.428,4.8032 -2.12743,2.85924 -2.12741,2.85924 -2.02848,0.30509 -2.03054,0.30716 -4.3641,-3.73743 c -2.40038,-2.05502 -4.74259,-3.73537 -5.20307,-3.73537 -0.46047,0 -12.17626,11.28028 -26.03413,25.0673 l -25.19513,25.06732 -1.42859,2.70464 c -0.78604,1.48704 -2.66533,7.83412 -4.17651,14.10654 l -2.74792,11.40605 12.60375,-4.47337 5.07736,-5.81536 c 2.79252,-3.19807 7.92713,-8.05065 11.41017,-10.78349 3.48304,-2.73285 9.05693,-7.54183 12.38524,-10.6866 l 6.05036,-5.71848 6.61522,1.85532 c 3.63778,1.02058 9.22544,2.71727 12.41822,3.7704 3.19278,1.05315 8.41734,2.94172 11.61012,4.19507 3.19279,1.25336 7.22994,2.60979 8.97146,3.01385 l 2.2037,0.51124 96.53596,-92.88719 0.46795,-0.51742 4.6218,-2.04497 c 2.54274,-1.12478 5.1643,-2.04496 5.8236,-2.04496 l 1.19771,0 15.02802,15.05276 15.02596,15.05482 0,1.3049 0,1.30696 -1.33376,0 -1.33583,0 -13.69013,-13.72106 -13.69012,-13.72105 -107.68846,95.51966 -2.63867,-0.28653 c -1.45126,-0.15737 -5.96337,-1.27437 -10.02692,-2.482 -4.06355,-1.20763 -8.33818,-2.56868 -9.49919,-3.02415 -1.16101,-0.45548 -4.24825,-1.40587 -6.86054,-2.113 -2.61227,-0.70713 -5.84038,-1.71045 -7.17387,-2.2305 -1.33344,-0.52005 -3.62144,-0.9462 -5.08354,-0.9462 -1.46212,0 -3.69602,0.52564 -4.96399,1.16884 -1.26798,0.64318 -8.53752,7.34446 -16.15565,14.89196 l -13.85091,13.72312 -10.29492,4.92894 -8.70759,8.78799 -8.7076,8.788 0,3.07362 0,3.07158 -7.32024,13.26547 c -4.02601,7.29575 -9.60678,17.59474 -12.40172,22.8863 l -5.08149,9.62082 -6.2153,8.3221 -6.21323,8.3221 -77.5953,77.74372 -77.595289,77.74166 -9.719771,-7.81704 -9.719772,-7.81911 -1.750171,0 -1.750179,0 -4.809385,4.43213 -4.807315,4.43214 0.511229,2.16453 c 0.281236,1.19025 1.732086,5.01429 3.224129,8.49733 l 2.712871,6.3328 0.02471,2.77265 0.02472,2.77472 -1.653293,1.37087 -1.651229,1.37088 -3.178764,-1.878 -3.178764,-1.87592 -2.622168,2.46344 c -1.442813,1.35545 -3.617813,4.13445 -4.832063,6.17612 -1.21425,2.04167 -3.819034,6.20164 -5.788569,9.24357 -1.969521,3.04192 -4.30498,7.26587 -5.19075,9.38582 l -1.612049,3.85286 0.628736,2.49849 0.626688,2.49849 17.693479,17.93468 17.695546,17.93466 4.347614,-0.41847 4.347607,-0.41848 6.169943,-3.36841 c 3.392786,-1.85182 7.148407,-4.27544 8.346839,-5.3866 1.19876,-1.11115 2.72523,-2.02022 3.39325,-2.02022 0.66802,0 2.89346,-1.47401 4.94542,-3.27567 l 3.73125,-3.27564 0,-1.65535 c 0,-0.91004 -0.70755,-2.43698 -1.5729,-3.39315 l -1.57289,-1.73782 4.43419,-10.48251 4.4342,-10.4825 64.95239,-65.41004 c 35.72351,-35.97545 74.21404,-74.63379 85.53391,-85.90705 l 20.58159,-20.49708 7.13471,-4.59911 c 3.92434,-2.52966 5.35866,-3.26863 8.19428,-4.59911 l 68.562,-32.16904 c 0.61225,-0.28728 1.29666,-1.56051 1.29666,-1.56051 l 1.90478,1.01835 1.90478,1.02043 4.50223,-1.58938 c 2.47617,-0.87365 6.4374,-2.4913 8.80242,-3.59519 2.36501,-1.10386 5.01263,-2.27846 5.88339,-2.61186 0.87076,-0.33341 2.29564,-1.04796 3.16641,-1.58733 0.87075,-0.53934 7.05453,-3.63364 13.74166,-6.87495 l 12.15847,-5.89164 54.02873,-54.08645 54.02667,-54.08645 3.59724,-7.79436 3.59931,-7.79231 -1.63475,-4.34556 c -0.89826,-2.38924 -2.2582,-5.09266 -3.02415,-6.00913 -0.76595,-0.91648 -1.39355,-2.2881 -1.39355,-3.04684 l 0,-1.3791 184.53135,-184.82818 C 821.69805,189.37448 906.95341,103.77943 909.66213,100.81672 l 4.92478,-5.386591 0,-1.7007 0,-1.700693 -2.282,-1.220414 c -1.25493,-0.6716 -8.02307,-2.6241 -15.04036,-4.337293 -7.01728,-1.713193 -15.60814,-3.759864 -19.09114,-4.54965 -3.48307,-0.789721 -9.30136,-2.180764 -12.9295,-3.090143 -3.62814,-0.909371 -9.32764,-2.310071 -12.66557,-3.112778 -3.33793,-0.802708 -10.58107,-2.520693 -16.09586,-3.817843 -5.51485,-1.297157 -12.63921,-2.99035 -15.832,-3.762157 -3.19278,-0.771736 -9.12978,-2.144372 -13.19335,-3.0509 -4.0635,-0.906529 -10.35079,-2.3766 -13.97043,-3.267429 z"
       id="path4402"
       inkscape:connector-curvature="0"
       sodipodi:nodetypes="ccscccccccccscccccccccccccccsccccccccccccccccccccscccccccscccccccccccccccccccscccscccscccsscccccscccccccccccsssssscccccccssccccccccccccscccccccsssccccccccccsccsccccsscsssccccssscccccccsscssccccssssssscc" />
    <path
       style="opacity:0.5;fill:#ffffff;fill-opacity:1"
       d="m 458.75144,57.212765 c -14.38119,-0.08118 -28.40022,5.624028 -39.07698,16.650414 -6.07851,6.277571 -10.77265,13.812014 -36.98254,59.345211 -16.51172,28.68507 -82.70805,143.3471 -147.1035,254.8043 -249.879609,432.49767 -271.29672,469.7918 -273.965556,477.0706 -3.721616,10.15008 -3.832444,27.45531 -0.235006,36.66301 5.302762,13.57252 15.673247,24.89982 28.320294,30.93217 12.5158428,5.96975 -19.999222,5.57825 469.445268,5.65663 399.38592,0.0639 452.52242,-0.11211 458.50092,-1.52135 32.40871,-7.63926 49.77664,-43.16836 36.75586,-75.18958 -2.99929,-7.37609 -98.20693,-172.96154 -286.07249,-497.58003 l -12.08222,12.97274 c 127.78999,220.95119 268.93685,465.57238 278.16064,482.34999 2.42014,4.40207 5.17885,11.04242 6.13071,14.75797 4.56286,17.81056 -3.94129,36.34959 -20.15486,43.93583 l -6.33271,2.96231 -452.26718,0.1979 C 66.462253,921.39354 8.7988062,921.22302 3.7549198,919.86444 -7.4301429,916.85247 -16.432215,909.19459 -21.504112,898.37788 -25.015275,890.88971 -25.34149,878.51345 -22.244174,870.36062 -20.17314,864.90919 20.166825,794.787 276.49803,351.07139 390.65967,153.45478 428.27115,89.17735 431.92982,85.436165 c 2.69904,-2.759929 7.66765,-6.2493 11.27411,-7.915972 5.48225,-2.533607 7.79857,-2.980207 15.4465,-2.978814 7.9868,0.0014 9.76445,0.379164 15.83199,3.372564 3.75923,1.854586 8.83335,5.417643 11.2741,7.915972 2.62854,2.690493 11.18434,16.159445 20.98563,33.038965 20.38986,35.11478 45.91763,79.16788 73.03948,126.00037 l 12.30484,-12.55427 C 554.147,166.78888 514.99422,99.161236 511.79479,93.607765 503.26185,78.796722 494.08389,68.786793 484.38565,63.710472 c -8.24678,-4.316593 -17.0055,-6.449029 -25.63421,-6.497707 z"
       id="path4464"
       inkscape:connector-curvature="0" />
  </g>
</svg>
