<?xml version="1.0" encoding="UTF-8" standalone="no"?>
<!-- Created with Inkscape (http://www.inkscape.org/) -->

<svg
   xmlns:dc="http://purl.org/dc/elements/1.1/"
   xmlns:cc="http://creativecommons.org/ns#"
   xmlns:rdf="http://www.w3.org/1999/02/22-rdf-syntax-ns#"
   xmlns:svg="http://www.w3.org/2000/svg"
   xmlns="http://www.w3.org/2000/svg"
   xmlns:sodipodi="http://sodipodi.sourceforge.net/DTD/sodipodi-0.dtd"
   xmlns:inkscape="http://www.inkscape.org/namespaces/inkscape"
   width="282.22223mm"
   height="282.20215mm"
   viewBox="0 0 1000 999.92886"
   id="svg4509"
   version="1.1"
   inkscape:version="0.91 r13725"
   sodipodi:docname="emblem.svg">
  <defs
     id="defs4511" />
  <sodipodi:namedview
     id="base"
     pagecolor="#ffffff"
     bordercolor="#666666"
     borderopacity="1.0"
     inkscape:pageopacity="0.0"
     inkscape:pageshadow="2"
     inkscape:zoom="1"
     inkscape:cx="379.88873"
     inkscape:cy="1095.6104"
     inkscape:document-units="px"
     inkscape:current-layer="layer1"
     showgrid="false"
     fit-margin-top="0"
     fit-margin-left="0"
     fit-margin-right="0"
     fit-margin-bottom="0"
     inkscape:window-width="2560"
     inkscape:window-height="1247"
     inkscape:window-x="-8"
     inkscape:window-y="-8"
     inkscape:window-maximized="1" />
  <metadata
     id="metadata4514">
    <rdf:RDF>
      <cc:Work
         rdf:about="">
        <dc:format>image/svg+xml</dc:format>
        <dc:type
           rdf:resource="http://purl.org/dc/dcmitype/StillImage" />
        <dc:title />
      </cc:Work>
    </rdf:RDF>
  </metadata>
  <g
     inkscape:label="Layer 1"
     inkscape:groupmode="layer"
     id="layer1"
     transform="translate(305.53159,137.95619)">
    <path
       style="fill:#fe7820;fill-opacity:1;opacity:0.5"
       d="m 194.34235,-103.167 c -19.09956,0.004 -38.15537,0.71869 -50.03858,2.14674 -64.430558,7.742856 -122.770694,26.282899 -176.24178,56.004449 -18.042449,10.028771 -48.842781,30.81445 -66.045571,44.57151452 C -117.72884,15.345968 -152.22506,49.84219 -168.01532,69.587447 c -13.23193,16.546164 -34.40256,47.775313 -43.66962,64.419933 -25.18754,45.23947 -42.86997,94.57058 -52.10736,145.37241 -5.38844,29.63412 -6.8366,47.15717 -6.8366,82.66274 0,35.50558 1.44816,53.02862 6.8366,82.66275 9.42397,51.82792 28.0257,103.16748 53.53704,147.76633 10.29748,18.00203 28.93037,45.35814 42.24886,62.026 15.77757,19.74538 50.27745,54.24526 70.022819,70.02283 43.386744,34.66825 91.4878428,61.02849 143.66215,78.7278 37.801679,12.82364 71.770791,19.53012 120.858631,23.86575 11.14583,0.98445 64.13241,-0.4297 78.67213,-2.09997 89.36031,-10.26537 171.57344,-44.44505 241.71726,-100.49358 19.74537,-15.77757 54.24525,-50.27745 70.02283,-70.02283 49.28669,-61.68148 81.80492,-132.90295 95.78592,-209.79233 5.38843,-29.63413 6.83657,-47.15717 6.83657,-82.66275 0,-35.50557 -1.44814,-53.02862 -6.83657,-82.66274 C 638.71727,202.28637 606.49717,131.73472 556.92714,69.587447 541.21139,49.884168 506.71451,15.376189 486.92659,-0.43537505 459.74624,-22.153882 425.93,-43.488847 396.16014,-57.70249 c -47.90168,-22.870693 -96.90905,-36.886743 -151.5209,-43.33559 -12.05406,-1.4234 -31.19734,-2.13262 -50.29689,-2.12892 z m 57.00211,17.690539 c 1.47022,0 0.62745,4.347028 -1.1246,5.801093 -1.00659,0.835392 -3.75722,4.359957 -6.11285,7.83425 -14.28699,21.071693 -19.32508,45.972864 -13.72888,67.8538215 7.17502,28.0540145 28.5125,54.7979145 65.23276,81.7653005 42.57498,31.267096 109.81024,81.972066 119.48462,90.107296 30.19935,25.39468 67.10055,61.80085 83.20611,82.09043 5.12164,6.45216 11.05627,13.65606 13.18774,16.00922 4.726,5.2175 12.96354,17.39145 20.89952,30.88719 21.66615,36.84489 36.04329,77.5594 42.94364,121.60909 2.53768,16.19975 3.50509,59.54502 1.72141,77.1222 -4.52754,44.6155 -18.71608,90.19238 -40.09322,128.78196 -32.58161,58.81564 -81.437,107.54883 -142.59323,142.24139 -29.6834,16.83873 -67.31579,31.77006 -98.99042,39.27594 -22.01912,5.21783 -26.61997,6.08949 -46.7717,8.84972 -23.47004,3.21473 -63.28092,4.54815 -83.84968,2.80813 C 79.854027,810.37827 5.3170048,781.14857 -59.217605,729.73141 -116.9821,683.70821 -160.19233,617.25084 -178.47509,546.31676 c -13.52468,-52.47353 -13.86998,-107.21152 -1.00211,-159.19036 4.1938,-16.94054 15.53586,-52.07291 20.79707,-64.41993 2.53853,-5.95742 7.32029,-17.5017 10.62457,-25.65396 8.06615,-19.90068 49.562206,-102.53691 63.266401,-125.98942 6.046193,-10.34709 16.2225,-26.76563 22.614223,-36.48563 6.391723,-9.71999 14.825843,-23.06422 18.74164,-29.65347 7.060048,-11.880186 18.248581,-27.9488 18.928696,-27.183843 0.194617,0.218893 -0.384843,4.50325 -1.287144,9.520021 -2.155035,11.981993 -1.521382,28.143832 1.333914,34.073892 5.815262,12.07755 25.16933474,10.80877 44.097185,-2.89053 9.85625,-7.1336 40.728436,-36.385662 62.8121,-59.516283 57.451945,-60.1756149 73.427975,-74.971301 123.421805,-114.31153 13.31906,-10.480778 42.95264,-30.092178 45.4712,-30.092178 z m 97.24229,43.865593 c 1.36104,0.04493 4.59241,1.307736 9.72266,3.79465 34.16458,16.561379 57.5802,43.074993 65.45322,74.111422 6.78764,26.757621 0.29058,51.349193 -15.74867,59.616493 -6.13077,3.160043 -16.91403,2.931014 -24.31781,-0.516636 -10.40202,-4.843821 -19.32914,-17.581407 -23.35356,-33.316743 -2.25703,-8.824907 -2.90606,-22.033957 -1.50094,-30.539779 l 0.7282,-4.413735 1.44526,3.273557 c 1.324,2.997064 1.47566,2.407186 1.79489,-6.988036 0.56719,-16.6929571 -0.0499,-23.33795719 -3.23569,-34.775357 -3.16123,-11.34915 -8.57712,-25.48655 -10.78046,-28.141415 -1.19272,-1.43715 -1.26569,-2.139378 -0.2071,-2.104421 z"
       id="path5252"
       inkscape:connector-curvature="0" />
    <path
       inkscape:connector-curvature="0"
       style="fill:#ffffff;fill-opacity:1;opacity:0.5"
       d="M 193.35806,-137.95573 C 93.738534,-137.82114 -3.0996596,-108.09484 -87.205363,-51.110854 -203.33792,27.572254 -281.90335,154.4263 -300.8636,293.86581 c -16.8034,123.5773 12.02472,246.30515 82.18173,349.85359 79.33157,117.08968 207.802139,196.01501 348.73344,214.24392 30.64974,3.96442 70.97669,5.11977 100.39337,2.87717 89.20009,-6.80022 171.85592,-35.6108 245.70343,-85.64457 C 592.26629,696.52272 670.84877,569.64121 689.80662,430.21926 706.60141,306.70506 677.74605,183.86125 607.62489,80.365668 528.9255,-35.790925 402.1166,-114.32841 262.64822,-133.29258 c -23.16319,-3.14962 -46.30105,-4.6942 -69.29016,-4.66315 z m 1.11345,15.56385 c 41.267,0 68.70173,2.93303 106.5797,11.39508 181.81473,40.617925 325.84169,184.644904 366.45963,366.45963 8.55543,38.29589 11.38835,64.82031 11.38835,106.5797 0,41.7634 -2.76807,67.62562 -11.41507,106.60644 C 640.48755,590.34919 565.12174,698.94811 459.84741,767.8449 372.01861,825.32448 266.2843,853.04711 161.91191,845.96252 10.360969,835.67555 -128.09127,754.60857 -211.33086,627.41844 -286.26484,512.91931 -309.10958,373.20798 -274.69969,239.87671 -229.54576,64.914482 -88.476579,-71.595604 87.891798,-110.9968 c 37.877972,-8.46205 65.312692,-11.39508 106.579712,-11.39508 z"
       id="path5217" />
  </g>
</svg>
