<?xml version="1.0" encoding="UTF-8" standalone="no"?>
<!-- Created with Inkscape (http://www.inkscape.org/) -->

<svg
   xmlns:dc="http://purl.org/dc/elements/1.1/"
   xmlns:cc="http://creativecommons.org/ns#"
   xmlns:rdf="http://www.w3.org/1999/02/22-rdf-syntax-ns#"
   xmlns:svg="http://www.w3.org/2000/svg"
   xmlns="http://www.w3.org/2000/svg"
   xmlns:sodipodi="http://sodipodi.sourceforge.net/DTD/sodipodi-0.dtd"
   xmlns:inkscape="http://www.inkscape.org/namespaces/inkscape"
   width="282.22223mm"
   height="248.57201mm"
   viewBox="0 0 1000 880.76694"
   id="svg6882"
   version="1.1"
   inkscape:version="0.91 r13725"
   sodipodi:docname="emblem.svg">
  <defs
     id="defs6884" />
  <sodipodi:namedview
     id="base"
     pagecolor="#ffffff"
     bordercolor="#666666"
     borderopacity="1.0"
     inkscape:pageopacity="0.0"
     inkscape:pageshadow="2"
     inkscape:zoom="1"
     inkscape:cx="630.0398"
     inkscape:cy="452.50042"
     inkscape:document-units="px"
     inkscape:current-layer="layer1"
     showgrid="false"
     fit-margin-top="0"
     fit-margin-left="0"
     fit-margin-right="0"
     fit-margin-bottom="0"
     inkscape:window-width="2560"
     inkscape:window-height="1247"
     inkscape:window-x="-8"
     inkscape:window-y="-8"
     inkscape:window-maximized="1" />
  <metadata
     id="metadata6887">
    <rdf:RDF>
      <cc:Work
         rdf:about="">
        <dc:format>image/svg+xml</dc:format>
        <dc:type
           rdf:resource="http://purl.org/dc/dcmitype/StillImage" />
        <dc:title />
      </cc:Work>
    </rdf:RDF>
  </metadata>
  <g
     inkscape:label="Layer 1"
     inkscape:groupmode="layer"
     id="layer1"
     transform="translate(308.18266,-33.095676)">
    <path
       style="fill:#0077f5;fill-opacity:1;opacity:0.5"
       d="m -134.76288,66.86025 c -1.00723,0 -5.92717,0.93365 -10.93105,2.074943 -5.00389,1.141283 -18.59205,4.041541 -30.19688,6.445292 -11.60483,2.40374 -21.56266,4.80402 -22.12789,5.334677 -0.64494,0.605498 40.67668,42.701788 110.952653,113.031718 L 24.9148,305.81427 l -2.132631,8.43987 c -1.173153,4.64194 -2.569879,8.90283 -3.105199,9.46808 -0.613706,0.64802 -44.811052,-42.80838 -119.625362,-117.62048 L -218.6012,87.453054 -229.68678,98.501549 c -6.09724,6.076501 -11.08558,11.627291 -11.08558,12.336311 0,1.14707 6.54431,14.2088 19.98701,39.89367 4.25408,8.12824 8.52445,12.55008 115.65681,119.75106 L 6.1105216,381.79376 4.5198053,387.90113 c -0.8749304,3.35911 -1.5907164,6.97489 -1.5907164,8.03602 0,1.06113 -0.7466654,2.55019 -1.6587207,3.30714 -1.44119336,1.19608 -13.7587822,-10.73132 -94.0976142,-91.09958 -50.842144,-50.86079 -92.633364,-92.27948 -92.869554,-92.04329 -0.5439,0.5439 6.17856,13.82056 23.52698,46.45848 2.46737,4.64193 7.45464,14.13679 11.08146,21.09969 8.95523,17.19261 17.29779,33.11578 22.66362,43.25437 2.45673,4.64193 6.95585,13.18731 9.99763,18.98972 l 5.53043,10.54985 50.000499,50.11589 c 27.500137,27.56371 50.001049,50.82612 50.002558,51.69425 0.0053,3.25092 -3.576989,16.37675 -4.66913,17.10641 -0.666022,0.44497 -13.892417,-11.96594 -31.970982,-30.00113 -16.959353,-16.91866 -31.135909,-30.46116 -31.503234,-30.09385 -0.578395,0.57841 8.391739,18.52846 21.744626,43.51194 4.87711,9.12515 11.790266,22.34153 23.172579,44.30935 4.810308,9.28387 9.567308,18.30398 10.572507,20.04471 1.0052,1.74072 5.279091,9.81136 9.49693,17.93474 4.217839,8.12338 9.9108103,19.04247 12.6515654,24.26464 2.74076564,5.22218 7.9713794,15.19178 11.6233776,22.15468 3.651998,6.9629 7.066034,12.94034 7.586827,13.28416 1.097564,0.72458 2.616003,1.00411 79.428801,14.57609 31.913286,5.63872 58.575176,10.06874 59.248106,9.84514 0.67294,-0.2236 1.4579,-1.43983 1.74525,-2.70339 0.28733,-1.26356 6.80353,-36.41266 14.47925,-78.11007 l 13.95589,-75.81466 -44.45154,-44.45977 c -27.03953,-27.04515 -44.449464,-45.23532 -44.449464,-46.44199 0,-1.091 4.086103,-16.27734 9.080694,-33.74714 6.66719,-23.32009 8.84054,-32.37406 8.17613,-34.05829 C 112.52684,308.60353 88.620215,284.64342 59.898259,256.61943 31.176302,228.59545 -11.075832,187.12724 -33.995373,164.46899 -120.55619,78.894987 -132.98036,66.86025 -134.76288,66.86025 Z"
       id="path7551"
       inkscape:connector-curvature="0" />
    <path
       style="fill:#0077f5;fill-opacity:1;opacity:0.5"
       d="m 520.50413,66.86025 c -1.74187,0 -22.4903,20.080915 -100.85612,97.60874 -22.91954,22.67446 -65.17167,64.14916 -93.89363,92.16693 -28.72195,28.01776 -52.62544,51.96957 -53.11806,53.2252 -0.65318,1.66484 1.56054,10.88472 8.17613,34.05416 4.9895,17.4745 9.07246,32.66469 9.07246,33.75539 0,1.20596 -17.41763,19.40452 -44.44741,46.43993 l -44.44947,44.45771 14.39064,77.86899 c 7.91437,42.82757 14.86345,78.16158 15.44358,78.52012 0.58013,0.35855 9.95276,-0.92613 20.8277,-2.85381 10.87495,-1.9277 27.84336,-4.91052 37.70746,-6.62869 64.94251,-11.31197 79.35537,-13.94537 80.52294,-14.71827 0.49957,-0.3307 3.89503,-6.29859 7.54562,-13.26149 3.65058,-6.9629 8.64364,-16.45776 11.09587,-21.09969 2.45224,-4.64193 7.90711,-15.08628 12.12203,-23.20966 4.21492,-8.12338 9.20463,-17.61825 11.0897,-21.0997 1.88507,-3.48144 6.7587,-12.73893 10.82802,-20.5722 10.63532,-20.47255 17.86354,-34.27015 22.38339,-42.72687 13.35289,-24.98348 22.32303,-42.93353 21.74463,-43.51194 -0.36732,-0.36731 -14.54388,13.17519 -31.50323,30.09385 -18.07857,18.03519 -31.30496,30.4461 -31.97099,30.00113 -1.09214,-0.72966 -4.67481,-13.85549 -4.66913,-17.10641 10e-4,-0.86813 22.50243,-24.13054 50.00256,-51.69425 l 50.0005,-50.11589 5.53043,-10.54985 c 3.04178,-5.80241 7.5409,-14.34779 9.99763,-18.98972 5.36583,-10.13859 13.70839,-26.06176 22.66362,-43.25437 3.62682,-6.9629 8.61409,-16.45776 11.08146,-21.09969 17.34842,-32.63792 24.07088,-45.91458 23.52698,-46.45848 -0.23619,-0.23619 -41.94325,41.09786 -92.68204,91.85373 -50.73879,50.75588 -92.83528,92.28305 -93.54953,92.2823 -0.71424,-7.5e-4 -1.57253,-1.3076 -1.90598,-2.90327 -0.33343,-1.59566 -1.33638,-5.70473 -2.22947,-9.13015 l -1.62369,-6.22688 111.32972,-111.40391 C 600.34437,160.84553 602.08815,159.03658 606.69555,150.20403 621.36727,122.07789 626.425,111.98606 626.425,110.8358 c 0,-0.70771 -4.98834,-6.25775 -11.08558,-12.334251 L 604.25384,87.453054 485.60103,206.10174 c -74.81431,74.8121 -119.01165,118.2685 -119.62536,117.62048 -0.53532,-0.56525 -1.93204,-4.82614 -3.1052,-9.46808 l -2.13263,-8.43987 111.98085,-112.06739 C 542.54044,123.87152 584.31211,81.321947 583.67134,80.727527 c -0.56523,-0.524328 -10.52306,-2.923015 -22.12789,-5.330553 -11.60483,-2.407527 -25.19299,-5.313841 -30.19688,-6.457666 -5.00388,-1.143814 -9.8839,-2.079058 -10.84244,-2.079058 z"
       id="path7549"
       inkscape:connector-curvature="0" />
    <path
       inkscape:connector-curvature="0"
       style="fill:#ffffff;fill-opacity:1;opacity:0.5"
       d="m 354.10091,33.096625 c -46.75417,0.0033 -100.81334,0.01476 -163.34335,0.01649 -389.42937,0.01076 -453.95379,0.225083 -458.82147,1.520661 -19.27416,5.130003 -33.69203,19.957339 -38.80159,39.901909 -2.31022,9.017671 -1.49277,24.335119 1.75762,32.941495 1.31486,3.48145 17.21057,32.20338 35.3255,63.82655 66.21313,115.58806 386.74186,670.0599 410.48174,710.07883 10.13388,17.08293 21.79354,26.85881 37.03162,31.04787 6.99618,1.92332 20.7923,1.90669 28.23937,-0.0329 9.94422,-2.59015 17.83125,-7.43611 25.51744,-15.68053 6.17553,-6.6241 14.77335,-20.98838 73.95814,-123.54452 36.83409,-63.82657 122.63171,-212.42116 190.66168,-330.21019 176.8749,-306.24623 186.69621,-323.29316 189.69943,-329.23144 8.0353,-15.888256 8.01197,-36.388992 -0.0597,-51.53971 -3.90301,-7.325944 -15.25421,-18.420672 -23.01185,-22.492599 -11.97759,-6.286937 18.64469,-6.624967 -308.63452,-6.601896 z m 30.5719,17.085805 c 169.48081,0.03095 254.62885,0.313635 257.55636,0.853055 13.09424,2.412724 23.29447,10.189395 28.84517,21.987774 2.83359,6.02296 3.29171,8.152668 3.21028,14.936694 -0.15694,13.073197 21.76265,-26.273686 -178.66329,320.715317 -57.81442,100.09166 -142.81789,247.26202 -188.89582,327.04523 -91.271,158.03433 -88.42769,153.56197 -100.41722,158.04783 -6.955,2.60219 -15.72961,3.51867 -21.76319,2.27481 -6.87119,-1.41655 -16.92058,-7.38798 -21.34076,-12.68042 C 159.21643,878.58791 149.05876,861.18997 12.949386,626.0021 -155.89129,334.25672 -275.52965,126.68415 -284.08855,110.64212 c -6.09719,-11.428024 -7.95523,-19.841136 -6.32578,-28.655617 2.48341,-13.433984 9.29691,-22.513583 21.15738,-28.194047 l 6.8574,-3.284464 449.40285,-0.271987 c 75.31268,-0.04563 141.17589,-0.06389 197.66951,-0.05357 z"
       id="path7520" />
  </g>
</svg>
