<?xml version="1.0" encoding="UTF-8" standalone="no"?>
<!-- Created with Inkscape (http://www.inkscape.org/) -->

<svg
   xmlns:dc="http://purl.org/dc/elements/1.1/"
   xmlns:cc="http://creativecommons.org/ns#"
   xmlns:rdf="http://www.w3.org/1999/02/22-rdf-syntax-ns#"
   xmlns:svg="http://www.w3.org/2000/svg"
   xmlns="http://www.w3.org/2000/svg"
   xmlns:sodipodi="http://sodipodi.sourceforge.net/DTD/sodipodi-0.dtd"
   xmlns:inkscape="http://www.inkscape.org/namespaces/inkscape"
   width="282.2222mm"
   height="317.40085mm"
   viewBox="0 0 999.99992 1124.6487"
   id="svg5274"
   version="1.1"
   inkscape:version="0.91 r13725"
   sodipodi:docname="emblem.svg">
  <defs
     id="defs5276" />
  <sodipodi:namedview
     id="base"
     pagecolor="#ffffff"
     bordercolor="#666666"
     borderopacity="1.0"
     inkscape:pageopacity="0.0"
     inkscape:pageshadow="2"
     inkscape:zoom="0.70710678"
     inkscape:cx="182.15738"
     inkscape:cy="640.11887"
     inkscape:document-units="px"
     inkscape:current-layer="layer1"
     showgrid="false"
     fit-margin-top="0"
     fit-margin-left="0"
     fit-margin-right="0"
     fit-margin-bottom="0"
     inkscape:window-width="2560"
     inkscape:window-height="1247"
     inkscape:window-x="-8"
     inkscape:window-y="-8"
     inkscape:window-maximized="1" />
  <metadata
     id="metadata5279">
    <rdf:RDF>
      <cc:Work
         rdf:about="">
        <dc:format>image/svg+xml</dc:format>
        <dc:type
           rdf:resource="http://purl.org/dc/dcmitype/StillImage" />
        <dc:title />
      </cc:Work>
    </rdf:RDF>
  </metadata>
  <g
     inkscape:label="Layer 1"
     inkscape:groupmode="layer"
     id="layer1"
     transform="translate(113.72515,149.16755)">
    <path
       style="fill:#fcb600;opacity:0.5"
       d="m 390.3511,-117.95073 c -2.08555,-0.0285 -3.71154,1.9099 -5.69294,6.51578 -8.9215,20.738574 -16.9623,95.412578 -18.93188,175.794397 -0.34619,14.128663 -0.86655,28.642663 -1.15509,32.253313 l -0.52402,6.56484 26.22366,0 26.22366,0 -0.52403,-6.56484 c -0.28854,-3.61065 -0.8089,-18.12465 -1.15509,-32.253313 -2.2953,-93.675016 -12.94125,-178.148957 -22.93679,-181.984607 -0.54045,-0.20739 -1.04619,-0.31899 -1.52748,-0.32557 z"
       id="path6160"
       inkscape:connector-curvature="0" />
    <path
       style="fill:#fcb600;opacity:0.5"
       d="m 202.92998,-83.806452 c -1.82557,0.146649 -3.67016,2.340617 -5.51232,6.622813 -8.9215,20.738573 -16.9623,95.412577 -18.93188,175.794399 -0.34619,14.12866 -0.86654,28.64266 -1.15509,32.25331 l -0.52402,6.56484 26.22366,0 26.22366,0 -0.52402,-6.56484 c -0.28855,-3.61065 -0.8089,-18.12465 -1.15509,-32.25331 -1.15427,-47.107702 -4.45092,-93.5681881 -9.19835,-129.584126 -4.65174,-35.289929 -9.96983,-53.273031 -15.44655,-52.833086 z"
       id="path6158"
       inkscape:connector-curvature="0" />
    <path
       style="fill:#fcb600;opacity:0.5"
       d="m 572.84414,-83.806452 c -1.82558,0.146649 -3.67017,2.340617 -5.51233,6.622813 -8.9215,20.738573 -16.9623,95.412577 -18.93187,175.794399 -0.34619,14.12866 -0.86655,28.64266 -1.1551,32.25331 l -0.52402,6.56484 26.22366,0 26.22366,0 -0.52402,-6.56484 c -0.28855,-3.61065 -0.8089,-18.12465 -1.15509,-32.25331 -1.15427,-47.107702 -4.45091,-93.5681881 -9.19835,-129.584126 -4.65174,-35.289929 -9.96983,-53.273031 -15.44654,-52.833086 z"
       id="path6156"
       inkscape:connector-curvature="0" />
    <path
       style="fill:#fcb600;opacity:0.5"
       d="m 8.9395725,7.2739299 c -11.0264113,0 -22.0853835,82.3113001 -24.5445475,182.6736601 -0.346189,14.12866 -0.866546,28.64265 -1.155091,32.25331 l -0.524022,6.56484 26.2236605,0 26.2236595,0 -0.524022,-6.56484 C 34.350665,218.59024 33.830308,204.07625 33.484119,189.94759 31.024954,89.58523 19.965983,7.2739299 8.9395725,7.2739299 Z"
       id="path6118"
       inkscape:connector-curvature="0" />
    <path
       style="fill:#fcb600;opacity:0.5"
       d="m 767.03524,7.2739299 c -11.02641,0 -22.08538,82.3113001 -24.54455,182.6736601 -0.34619,14.12866 -0.86654,28.64265 -1.15509,32.25331 l -0.52402,6.56484 26.22366,0 26.22366,0 -0.52402,-6.56484 c -0.28855,-3.61066 -0.8089,-18.12465 -1.15509,-32.25331 C 789.12062,89.58523 778.06165,7.2739299 767.03524,7.2739299 Z"
       id="path6116"
       inkscape:connector-curvature="0" />
    <path
       style="fill:#fcb600;opacity:0.5"
       d="m 364.8031,106.03188 -6.10324,13.61578 c -3.35746,7.48908 -6.10548,13.78276 -6.10548,13.98595 0,0.20319 16.69752,0.37017 37.10559,0.37017 20.40807,0 37.10559,-0.16698 37.10559,-0.37017 0,-0.20319 -2.74802,-6.49687 -6.10548,-13.98595 l -6.10324,-13.61578 -24.89687,0 -24.89687,0 z"
       id="path6110"
       inkscape:connector-curvature="0" />
    <path
       style="fill:#fcb600;opacity:0.5"
       d="m 352.59438,136.2872 0,165.548 0,165.548 37.10559,0 37.10559,0 0,-165.548 0,-165.548 -37.10559,0 -37.10559,0 z"
       id="path6108"
       inkscape:connector-curvature="0" />
    <path
       style="fill:#fcb600;opacity:0.5"
       d="m 178.70432,140.28319 -6.10324,13.61578 c -3.35746,7.48908 -6.10548,13.78276 -6.10548,13.98595 0,0.20319 16.69751,0.37017 37.10559,0.37017 20.40807,0 37.10558,-0.16698 37.10558,-0.37017 0,-0.20319 -2.74802,-6.49687 -6.10548,-13.98595 l -6.10324,-13.61578 -24.89686,0 -24.89687,0 z"
       id="path6106"
       inkscape:connector-curvature="0" />
    <path
       style="fill:#fcb600;opacity:0.5"
       d="m 547.47676,140.28319 -6.10324,13.61578 c -3.35746,7.48908 -6.10548,13.78276 -6.10548,13.98595 0,0.20319 16.69751,0.37017 37.10559,0.37017 20.40807,0 37.10558,-0.16698 37.10558,-0.37017 0,-0.20319 -2.74801,-6.49687 -6.10548,-13.98595 l -6.10324,-13.61578 -24.89686,0 -24.89687,0 z"
       id="path6104"
       inkscape:connector-curvature="0" />
    <path
       style="fill:#fcb600;opacity:0.5"
       d="m 166.4956,170.53851 0,165.548 0,165.548 37.10559,0 37.10558,0 0,-165.548 0,-165.548 -37.10558,0 -37.10559,0 z"
       id="path6100"
       inkscape:connector-curvature="0" />
    <path
       style="fill:#fcb600;opacity:0.5"
       d="m 535.26804,170.53851 0,165.548 0,165.548 37.10559,0 37.10558,0 0,-165.548 0,-165.548 -37.10558,0 -37.10559,0 z"
       id="path6098"
       inkscape:connector-curvature="0" />
    <path
       style="fill:#fcb600;opacity:0.5"
       d="m -15.38644,231.62001 -6.103241,13.61579 c -3.357462,7.48908 -6.105479,13.78276 -6.105479,13.98595 0,0.20319 16.697514,0.37017 37.1055877,0.37017 20.4080723,0 37.1055863,-0.16698 37.1055863,-0.37017 0,-0.20319 -2.748017,-6.49687 -6.105479,-13.98595 l -6.103241,-13.61579 -24.8968663,0 -24.8968677,0 z"
       id="path6094"
       inkscape:connector-curvature="0" />
    <path
       style="fill:#fcb600;opacity:0.5"
       d="m 741.56752,231.62001 -6.10324,13.61579 c -3.35746,7.48908 -6.10548,13.78276 -6.10548,13.98595 0,0.20319 16.69751,0.37017 37.10558,0.37017 20.40808,0 37.10559,-0.16698 37.10559,-0.37017 0,-0.20319 -2.74802,-6.49687 -6.10548,-13.98595 l -6.10324,-13.61579 -24.89687,0 -24.89686,0 z"
       id="path6092"
       inkscape:connector-curvature="0" />
    <path
       style="fill:#fcb600;opacity:0.5"
       d="m -27.59516,261.87534 0,165.548 0,165.548 37.1055877,0 37.1055863,0 0,-165.548 0,-165.548 -37.1055863,0 -37.1055877,0 z"
       id="path6088"
       inkscape:connector-curvature="0" />
    <path
       style="fill:#fcb600;opacity:0.5"
       d="m 729.3588,261.87534 0,165.548 0,165.548 37.10558,0 37.10559,0 0,-165.548 0,-165.548 -37.10559,0 -37.10558,0 z"
       id="path6086"
       inkscape:connector-curvature="0" />
    <path
       style="fill:#fcb600;opacity:0.5"
       d="m 347.32736,470.80833 -11.04025,18.26737 -11.04249,18.26736 64.45535,0 64.45535,0 -11.04249,-18.26736 -11.04024,-18.26737 -42.37262,0 -42.37261,0 z"
       id="path6082"
       inkscape:connector-curvature="0" />
    <path
       style="fill:#fcb600;opacity:0.5"
       d="m 161.22857,505.05969 -11.04025,18.26736 -11.04248,18.26737 64.45535,0 64.45534,0 -11.04248,-18.26737 -11.04025,-18.26736 -42.37261,0 -42.37262,0 z"
       id="path6074"
       inkscape:connector-curvature="0" />
    <path
       style="fill:#fcb600;opacity:0.5"
       d="m 530.00101,505.05969 -11.04025,18.26736 -11.04248,18.26737 64.45535,0 64.45534,0 -11.04248,-18.26737 -11.04025,-18.26736 -42.37261,0 -42.37262,0 z"
       id="path6072"
       inkscape:connector-curvature="0" />
    <path
       style="fill:#fcb600;opacity:0.5"
       d="m 326.33505,510.76824 0,7.42111 0,7.42112 63.36492,0 63.36493,0 0,-7.42112 0,-7.42111 -63.36493,0 -63.36492,0 z"
       id="path6070"
       inkscape:connector-curvature="0" />
    <path
       style="fill:#fcb600;opacity:0.5"
       d="m 140.23626,545.01955 0,7.42112 0,7.42111 63.36493,0 63.36492,0 0,-7.42111 0,-7.42112 -63.36492,0 -63.36493,0 z"
       id="path6068"
       inkscape:connector-curvature="0" />
    <path
       style="fill:#fcb600;opacity:0.5"
       d="m 509.0087,545.01955 0,7.42112 0,7.42111 63.36493,0 63.36492,0 0,-7.42111 0,-7.42112 -63.36492,0 -63.36493,0 z"
       id="path6066"
       inkscape:connector-curvature="0" />
    <path
       style="fill:#fcb600;opacity:0.5"
       d="m -32.862189,596.39651 -11.040248,18.26737 -11.042484,18.26736 64.4553487,0 64.4553483,0 -11.042485,-18.26736 -11.040248,-18.26737 -42.3726153,0 -42.3726167,0 z"
       id="path6060"
       inkscape:connector-curvature="0" />
    <path
       style="fill:#fcb600;opacity:0.5"
       d="m 724.09177,596.39651 -11.04025,18.26737 -11.04248,18.26736 64.45534,0 64.45535,0 -11.04248,-18.26736 -11.04025,-18.26737 -42.37262,0 -42.37261,0 z"
       id="path6058"
       inkscape:connector-curvature="0" />
    <path
       style="fill:#fcb600;opacity:0.5"
       d="m -53.854496,636.35638 0,7.42111 0,7.42112 63.3649237,0 63.3649243,0 0,-7.42112 0,-7.42111 -63.3649243,0 -63.3649237,0 z"
       id="path6054"
       inkscape:connector-curvature="0" />
    <path
       style="fill:#fcb600;opacity:0.5"
       d="m 703.09946,636.35638 0,7.42111 0,7.42112 63.36492,0 63.36493,0 0,-7.42112 0,-7.42111 -63.36493,0 -63.36492,0 z"
       id="path6052"
       inkscape:connector-curvature="0" />
    <g
       transform="matrix(1.1417103,0,0,1.1417103,16.116032,-169.45223)"
       id="g5991"
       style="fill:#ffffff;fill-opacity:1;opacity:0.5">
      <path
         inkscape:connector-curvature="0"
         id="path5977"
         d="m 294.96429,99.792673 c -13.73809,0.0035 -52.06532,5.904657 -74.75,11.509767 -22.87194,5.65138 -30.36773,8.2145 -29.95703,10.24609 0.19364,0.95788 0.63152,3.89944 0.97265,6.53711 0.50256,3.88576 0.94001,4.69853 2.30274,4.2793 0.92502,-0.28457 4.60664,-1.40825 8.18164,-2.49805 23.69543,-7.22332 58.24565,-13.92954 83.14062,-16.13672 l 13.64063,-1.20898 0.59961,-3.61524 c 0.32885,-1.98816 0.60137,-4.85273 0.60742,-6.36523 0.0105,-2.615745 -0.22017,-2.749201 -4.73828,-2.748047 z"
         style="fill:#ffffff;fill-opacity:1" />
      <path
         inkscape:connector-curvature="0"
         id="path5975"
         d="m 356.82171,99.792673 c -1.10981,-9.67e-4 -1.26013,1.254637 -0.74414,6.191407 0.7169,6.85889 1.4992,7.76866 6.70117,7.79101 15.82666,0.068 63.60207,9.51664 87.93555,17.39063 4.125,1.33479 7.80481,2.47087 8.17773,2.52539 0.37293,0.0545 0.98646,-2.36867 1.36329,-5.38477 0.37684,-3.01609 0.45132,-6.09242 0.16601,-6.83593 -1.00133,-2.60942 -35.70104,-11.7985 -61.04492,-16.16602 -12.30104,-2.11985 -38.46421,-5.508155 -42.55469,-5.511717 z"
         style="fill:#ffffff;fill-opacity:1" />
      <path
         inkscape:connector-curvature="0"
         id="path5973"
         d="m 135.01702,141.5583 -12.27929,6.26172 c -32.86844,16.75734 -69.10759,42.06346 -94.87891,66.25586 l -5.35547,5.02734 0.69727,8.36523 0.69726,8.36719 8.35743,-7.91211 c 4.59671,-4.35117 12.31779,-11.25825 17.1582,-15.34961 22.45622,-18.98118 48.49245,-36.63491 75.55078,-51.22656 7.76948,-4.18982 8.75,-5.03007 8.75,-7.49805 0,-1.5287 0.29384,-4.9196 0.65234,-7.53515 l 0.65039,-4.75586 z"
         style="fill:#ffffff;fill-opacity:1" />
      <path
         inkscape:connector-curvature="0"
         id="path5971"
         d="m 517.36468,143.90791 c -0.058,-0.005 -0.0954,0.003 -0.11328,0.0215 -0.19493,0.19923 -0.10592,3.45008 0.19922,7.22461 0.62977,7.78993 -1.08993,6.16586 17.76367,16.75977 25.38834,14.26581 59.58143,39.62663 80.5,59.70507 5.775,5.54306 10.8375,10.09906 11.25,10.125 0.4125,0.026 0.75303,-1.41562 0.75781,-3.20312 0.005,-1.7875 0.26511,-5.5 0.57813,-8.25 l 0.57031,-5 -10.6875,-9.5 C 596.78607,192.77175 574.6996,176.33193 552.31195,162.75947 539.81139,155.18104 519.16321,144.0635 517.36468,143.90791 Z"
         style="fill:#ffffff;fill-opacity:1" />
      <path
         inkscape:connector-curvature="0"
         id="path5957"
         d="m -40.12751,293.29072 -4.90429,7.5 c -29.967138,45.81383 -53.108209,105.23693 -62.69532,161 -5.04547,29.34677 -5.99804,41.35274 -5.99804,75.5 0,34.14726 0.95257,46.15323 5.99804,75.5 5.02884,29.25008 14.870202,63.34321 26.007816,90.10547 3.065757,7.36662 5.82055,14.18203 6.121094,15.14453 1.091294,3.4949 1.390592,1.56308 1.240234,-8.00586 -0.08432,-5.36608 0.394889,-11.5907 1.066407,-13.83203 1.142187,-3.81228 0.956906,-4.79532 -2.888672,-15.24609 C -98.38755,620.60596 -106.24182,548.5245 -97.719304,483.29072 -90.676381,429.38222 -72.828443,375.0941 -47.45759,330.40986 l 6.17774,-10.88086 0.57617,-13.11914 0.57617,-13.11914 z"
         style="fill:#ffffff;fill-opacity:1" />
      <path
         inkscape:connector-curvature="0"
         id="path5951"
         d="m 692.40374,299.22822 c -0.52854,-0.0247 -0.57847,4.3107 -0.13867,12.46289 l 0.72266,13.39844 6.80664,12.48828 c 14.59124,26.77272 28.90416,63.9739 36.86328,95.81055 20.06038,80.24203 16.8359,161.26508 -9.56445,240.38672 l -5.5,16.48437 2.18554,4.37305 c 1.69243,3.38876 2.15181,5.97057 2.03907,11.45508 -0.08,3.89369 0.0477,6.88146 0.28515,6.64062 0.2374,-0.24083 2.67175,-6.0625 5.40821,-12.9375 10.79289,-27.11577 19.83937,-59.05102 24.64453,-87 5.04546,-29.34677 5.99804,-41.35274 5.99804,-75.5 0,-34.14726 -0.95258,-46.15323 -5.99804,-75.5 -6.96961,-40.53841 -20.61696,-81.9752 -39.46875,-119.84766 -7.83685,-15.74389 -21.57368,-39.98367 -24.17188,-42.65234 -0.0395,-0.0406 -0.0761,-0.0609 -0.11133,-0.0625 z"
         style="fill:#ffffff;fill-opacity:1" />
      <path
         inkscape:connector-curvature="0"
         id="path5847"
         d="m -70.141179,728.11299 c -0.0927,0.0141 -0.144531,0.0748 -0.144531,0.1875 0,1.70747 14.254405,27.96826 21.54883,39.69921 43.52809,70.0022 104.18398,125.25147 177.60351,161.77149 51.98076,25.85604 108.56105,41.15833 167.84766,45.39453 12.77336,0.91269 62.06098,-0.29512 75,-1.83789 101.84321,-12.14314 191.62622,-55.24843 262.52148,-126.03711 30.69382,-30.64767 57.5593,-66.88912 77.03125,-103.91016 l 6.79102,-12.9082 -3.29687,0.6582 c -1.81314,0.36263 -5.24372,0.66016 -7.62305,0.66016 -4.3082,0 -4.34134,0.0279 -8.03125,6.75 -20.78184,37.85958 -44.2537,69.21269 -74.3418,99.30078 C 557.27788,905.3287 472.17568,947.18865 377.99554,959.22236 263.18157,973.89251 148.69096,941.48453 57.30023,868.44697 37.83198,852.88835 8.6393,823.70219 -6.88923,804.27119 -21.00639,786.60626 -35.86438,764.67661 -46.58259,745.68525 l -7.679682,-13.60742 -6.185547,-0.64649 c -3.544591,-0.37048 -6.96575,-1.35223 -8.011719,-2.29882 -0.753032,-0.68149 -1.403532,-1.06181 -1.681641,-1.01953 z"
         style="fill:#ffffff;fill-opacity:1" />
    </g>
  </g>
</svg>
