<?xml version="1.0" encoding="UTF-8" standalone="no"?>
<!-- Created with Inkscape (http://www.inkscape.org/) -->

<svg
   xmlns:dc="http://purl.org/dc/elements/1.1/"
   xmlns:cc="http://creativecommons.org/ns#"
   xmlns:rdf="http://www.w3.org/1999/02/22-rdf-syntax-ns#"
   xmlns:svg="http://www.w3.org/2000/svg"
   xmlns="http://www.w3.org/2000/svg"
   xmlns:sodipodi="http://sodipodi.sourceforge.net/DTD/sodipodi-0.dtd"
   xmlns:inkscape="http://www.inkscape.org/namespaces/inkscape"
   width="282.22223mm"
   height="282.34628mm"
   viewBox="0 0 1000 1000.4396"
   id="svg6182"
   version="1.1"
   inkscape:version="0.91 r13725"
   sodipodi:docname="emblem.svg">
  <defs
     id="defs6184" />
  <sodipodi:namedview
     id="base"
     pagecolor="#ffffff"
     bordercolor="#666666"
     borderopacity="1.0"
     inkscape:pageopacity="0.0"
     inkscape:pageshadow="2"
     inkscape:zoom="1"
     inkscape:cx="485.75242"
     inkscape:cy="545.55239"
     inkscape:document-units="px"
     inkscape:current-layer="layer1"
     showgrid="false"
     fit-margin-top="0"
     fit-margin-left="0"
     fit-margin-right="0"
     fit-margin-bottom="0"
     inkscape:window-width="2560"
     inkscape:window-height="1247"
     inkscape:window-x="-8"
     inkscape:window-y="-8"
     inkscape:window-maximized="1" />
  <metadata
     id="metadata6187">
    <rdf:RDF>
      <cc:Work
         rdf:about="">
        <dc:format>image/svg+xml</dc:format>
        <dc:type
           rdf:resource="http://purl.org/dc/dcmitype/StillImage" />
        <dc:title />
      </cc:Work>
    </rdf:RDF>
  </metadata>
  <g
     inkscape:label="Layer 1"
     inkscape:groupmode="layer"
     id="layer1"
     transform="translate(61.530424,106.63233)">
    <path
       style="fill:#83db56;fill-opacity:1;opacity:0.5"
       d="m 440.18323,-63.33391 c -24.1717,0 -48.34339,0.754422 -59.93726,2.265486 -92.84168,12.10034 -168.20172,45.637875 -237.30291,105.605962 -6.18957,5.371508 -11.51405,10.442519 -11.83136,11.269448 -0.31732,0.826928 2.94883,5.268404 7.25803,9.869131 l 7.83554,8.364009 4.56665,-3.828574 c 2.51166,-2.105316 10.73162,-8.846168 18.26659,-14.979861 62.51185,-50.8866022 134.73601,-81.57995 218.64834,-92.922803 27.26044,-3.684935 77.73231,-3.684935 104.99276,0 88.67849,11.987119 163.57548,45.2476845 229.94231,102.114084 l 11.29399,9.677366 7.54344,-7.971564 c 4.14901,-4.384187 7.6943,-8.600368 7.87791,-9.369654 C 750.079,53.651391 714.54643,24.572211 690.77803,8.8360787 632.32836,-29.861184 573.18473,-51.545736 500.12048,-61.068424 488.52663,-62.579488 464.35493,-63.33391 440.18323,-63.33391 Z"
       id="path6868"
       inkscape:connector-curvature="0" />
    <path
       style="fill:#83db56;fill-opacity:1;opacity:0.5"
       d="M 435.67678,-3.0331984 C 421.5362,-3.0895965 408.55074,-2.8332021 400.79589,-2.1925585 339.31422,2.8865586 284.51256,20.624526 233.781,51.869143 213.29793,64.484279 185.27135,86.036002 174.56621,97.401829 l -3.60783,3.828591 8.43536,9.00619 8.4376,9.00619 6.44637,-5.5812 C 264.87491,52.545589 348.8293,20.749938 439.6124,20.749938 c 91.40112,0 178.33714,33.264102 247.16981,94.570642 4.77152,4.2498 5.26571,4.43802 6.93916,2.66239 0.99099,-1.05149 4.80484,-5.13428 8.4755,-9.0731 l 6.67383,-7.15991 -3.90886,-4.089464 C 702.81185,95.41189 696.68613,89.857545 691.34886,85.316276 636.43995,38.596409 570.194,9.3291054 497.14814,-0.48230319 486.02116,-1.9768643 459.24441,-2.9392511 435.67678,-3.0331984 Z"
       id="path6866"
       inkscape:connector-curvature="0" />
    <path
       style="fill:#83db56;fill-opacity:1;opacity:0.5"
       d="m 439.04156,58.458233 c -17.42492,0 -34.84967,0.394056 -42.89928,1.186255 -56.19162,5.530062 -111.46911,27.542835 -156.89156,62.477002 -11.80463,9.07889 -26.25822,21.92761 -26.25822,23.34164 0,1.26837 16.09573,19.12952 17.23865,19.12952 0.45042,0 4.85052,-3.46779 9.77994,-7.70621 31.82159,-27.3609 70.81621,-48.66554 111.03554,-60.666402 56.07556,-16.732129 117.04025,-16.982724 173.56383,-0.713539 41.64234,11.985921 82.98847,34.652701 116.42054,63.826041 4.03466,3.52072 7.69603,6.40178 8.13656,6.40178 0.44054,0 4.72047,-4.3169 9.51014,-9.59264 l 8.70741,-9.59264 -10.02968,-9.00173 C 608.26782,93.485187 546.34126,65.982413 481.94085,59.644488 473.89124,58.852289 456.46649,58.458233 439.04156,58.458233 Z"
       id="path6864"
       inkscape:connector-curvature="0" />
    <path
       style="fill:#83db56;fill-opacity:1;opacity:0.5"
       d="m 844.84664,178.46429 c -0.41078,-0.45227 -21.065,13.51832 -21.065,14.24848 0,0.25927 2.01492,4.4786 4.47747,9.37634 20.12327,40.02324 34.02952,87.7722 40.78319,140.03198 3.16302,24.47536 2.8853,75.63058 -0.54854,101.18425 -8.60758,64.05523 -29.03013,122.3621 -60.71768,173.352 -4.47615,7.20278 -8.22876,13.48322 -8.33949,13.95637 -0.11074,0.47314 4.42305,3.67874 10.07428,7.12425 l 10.27496,6.26576 2.28332,-2.76051 c 1.25583,-1.51744 5.61726,-8.30405 9.69297,-15.08243 32.68367,-54.35666 51.46141,-109.18198 60.13571,-175.5818 1.71938,-13.1614 2.08245,-23.8442 2.06035,-60.50809 -0.024,-39.6989 -0.30381,-46.56522 -2.58881,-63.34217 -5.83961,-42.87541 -15.04369,-77.60229 -30.08904,-113.51956 -4.76458,-11.37431 -15.15061,-33.33221 -16.43369,-34.74487 z"
       id="path6862"
       inkscape:connector-curvature="0"
       sodipodi:nodetypes="ssssssccccssssss" />
    <path
       style="fill:#83db56;fill-opacity:1;opacity:0.5"
       d="m 35.499739,178.48439 c -1.08684,1.20314 -11.291391,22.55917 -15.182769,31.77477 -15.8297592,37.48812 -25.4683282,73.29548 -31.304279,116.30234 -2.29934,16.94453 -2.578979,23.7686 -2.604417,63.50941 -0.02992,46.75195 0.731759,57.3508 6.3906314,89.04964 9.6275599,53.92987 31.2138986,108.83979 61.1948616,155.65624 5.873954,9.17241 6.192889,9.46335 8.627129,7.89799 1.389973,-0.89383 6.266274,-3.834 10.836872,-6.53335 l 8.310488,-4.90781 -1.971147,-2.99017 C 43.734683,573.52718 21.136741,511.96109 11.854801,443.13812 8.434998,417.78125 8.1660909,366.55778 11.324111,342.12111 c 6.753661,-52.25978 20.659914,-100.00874 40.78319,-140.03197 2.462538,-4.89774 4.477457,-9.1583 4.477457,-9.47 0,-0.76854 -20.652661,-14.61344 -21.085065,-14.13475 z"
       id="path6860"
       inkscape:connector-curvature="0" />
    <path
       style="fill:#83db56;fill-opacity:1;opacity:0.5"
       d="m 793.49193,212.55363 -11.12005,7.43864 -11.12229,7.43641 2.90544,5.73507 c 1.59855,3.15459 5.40196,12.00672 8.45097,19.67137 43.66051,109.75448 32.74556,232.55954 -29.59179,332.93048 -4.45067,7.16612 -7.68779,13.41454 -7.19336,13.88502 2.14411,2.04027 20.40055,12.43799 21.31028,12.13685 0.55211,-0.18276 4.54819,-5.96148 8.8791,-12.84147 32.00432,-50.84144 50.70898,-107.78369 55.86339,-170.05858 1.71652,-20.73865 0.68677,-78.53125 -1.71918,-96.45483 -5.44144,-40.53697 -18.26886,-83.83327 -33.89756,-114.46053 z"
       id="path6858"
       inkscape:connector-curvature="0"
       sodipodi:nodetypes="ccccssssssssc" />
    <path
       style="fill:#83db56;fill-opacity:1;opacity:0.5"
       d="m 85.808678,212.66061 c -1.448963,1.59031 -8.197201,16.52735 -13.615209,30.13585 -11.125428,27.94394 -18.904507,58.21678 -23.259132,90.51462 -2.500902,18.54888 -2.880927,90.00988 -0.577521,108.7054 5.753378,46.69712 17.488533,85.98531 37.764027,126.43237 10.075851,20.10006 24.539137,43.67526 26.793377,43.67526 0.67412,0 6.00461,-2.85289 11.84699,-6.33934 l 10.6228,-6.33935 -2.72259,-3.65019 C 124.16149,584.40237 107.96285,554.29184 99.067072,533.34947 59.787428,440.87765 60.807217,332.33412 101.81865,240.57115 c 3.37773,-7.55768 6.1409,-13.80664 6.1409,-13.88502 0,-0.55993 -21.827393,-14.38058 -22.150918,-14.02549 z"
       id="path6856"
       inkscape:connector-curvature="0" />
    <path
       style="fill:#83db56;fill-opacity:1;opacity:0.5"
       d="m 136.71743,247.4813 c -0.076,0.008 -0.13267,0.0315 -0.16723,0.0713 -0.45377,0.52321 -2.64929,5.31898 -4.88105,10.65625 -12.2907,29.3934 -19.65493,58.82534 -22.6281,90.44772 -1.909,20.30404 -0.82885,82.00126 1.71472,97.9265 5.5772,34.91871 16.61838,68.51145 32.26979,98.18293 5.63398,10.68073 21.66112,36.53319 22.64816,36.53319 0.21038,0 5.29157,-2.87331 11.29176,-6.38618 6.00019,-3.51288 11.17707,-6.82115 11.50358,-7.34945 0.3265,-0.5283 -2.80287,-6.1424 -6.95254,-12.47577 -42.27774,-64.52552 -58.11325,-147.92855 -42.72318,-225.00552 4.75438,-23.81099 10.76715,-42.73041 21.23893,-66.81845 0.6573,-1.51197 -20.95802,-16.03543 -23.31488,-15.78257 z"
       id="path6854"
       inkscape:connector-curvature="0" />
    <path
       style="fill:#83db56;fill-opacity:1;opacity:0.5"
       d="m 741.20738,248.31747 c -0.10857,0.0114 -0.21675,0.0371 -0.32333,0.0781 -2.86205,1.09825 -22.13531,14.43257 -22.13531,15.31431 0,0.481 1.98524,5.7319 4.41056,11.67083 8.75246,21.43218 16.12457,49.54545 19.74942,75.30285 2.268,16.11597 1.98553,64.40372 -0.47272,80.77036 -7.01183,46.68375 -24.2921,91.98599 -48.97774,128.39906 l -4.42171,6.52219 11.6552,6.89233 c 6.41053,3.79013 11.94092,6.88214 12.28848,6.87228 0.34757,-0.0103 3.53935,-4.50515 7.09525,-9.98954 27.1033,-41.80237 43.2,-86.72135 48.37124,-134.98369 2.18087,-20.35378 2.18902,-70.88387 0.0133,-91.33296 -2.89676,-27.22632 -10.38912,-57.2551 -20.12625,-80.66332 -2.57166,-6.18233 -4.95434,-12.16867 -5.29357,-13.30304 -0.29873,-0.99892 -1.0727,-1.62754 -1.83289,-1.54971 z"
       id="path6761"
       inkscape:connector-curvature="0" />
    <path
       inkscape:connector-curvature="0"
       style="opacity:0.5;fill:#ffffff;fill-opacity:1;stroke:none;stroke-width:0.2;stroke-linecap:butt;stroke-linejoin:miter;stroke-miterlimit:4;stroke-dasharray:none;stroke-dashoffset:0;stroke-opacity:1"
       d="m 438.5019,-106.63233 c -21.24884,-0.002 -42.50757,0.70684 -54.26016,2.12724 -61.67561,7.454039 -116.62508,23.670012 -169.12205,49.907569 C 157.13609,-25.617787 107.38527,12.303055 65.165055,59.700236 2.5255045,130.02056 -37.94082,213.31879 -54.564505,306.15874 c -5.833436,32.5786 -6.965919,46.77348 -6.965919,87.33714 0,40.52261 1.121717,54.62963 6.950312,87.33714 35.036057,196.60682 182.098982,352.85124 376.030452,399.51033 25.92149,6.2366 52.46293,10.34664 84.48298,13.08005 12.89846,1.10108 73.32059,-0.34296 87.90797,-2.10047 46.25502,-5.57288 87.79459,-15.96129 129.0078,-32.26311 161.62996,-63.93246 277.88917,-206.39582 308.65679,-378.2268 5.83525,-32.58877 6.96715,-46.77048 6.96369,-87.33714 -0.005,-48.02054 -3.03445,-74.97072 -13.15141,-117.02035 C 898.37487,164.48979 833.70149,64.989247 742.88638,-4.197157 669.85507,-59.835176 587.05116,-93.030898 492.69963,-104.49395 c -11.70992,-1.42267 -32.94888,-2.13632 -54.19773,-2.13838 z m -0.0312,14.716734 c 52.17383,0 104.34765,8.366688 154.12437,25.100955 109.26769,36.734339 201.77976,110.569193 261.59445,208.781431 7.82408,12.8467 24.56565,46.03618 31.64544,62.73566 2.83066,6.67681 8.03925,20.54801 11.57493,30.82487 42.52103,123.5922 33.70332,257.38582 -24.70851,374.88433 -33.71639,67.82232 -81.70735,125.46933 -143.22729,172.04979 -66.13557,50.07524 -148.87589,83.24044 -234.51564,93.99981 -13.50106,1.6962 -76.15572,3.22577 -87.31262,2.1317 -2.51166,-0.2463 -10.47475,-1.00824 -17.69576,-1.69466 C 328.10556,871.01944 259.04838,849.2878 203.10107,818.09825 96.425883,758.62888 17.782709,664.1571 -21.587819,548.19107 -47.708604,471.2522 -53.73793,389.16764 -39.27912,307.3004 -20.705074,202.13231 35.945809,101.04318 115.47627,31.154223 c 51.40041,-45.169088 105.9545,-76.817479 168.8701,-97.968864 49.77671,-16.734267 101.95054,-25.100955 154.12436,-25.100955 z"
       id="path6834" />
  </g>
</svg>
