<?xml version="1.0" encoding="UTF-8" standalone="no"?>
<!-- Created with Inkscape (http://www.inkscape.org/) -->

<svg
   xmlns:dc="http://purl.org/dc/elements/1.1/"
   xmlns:cc="http://creativecommons.org/ns#"
   xmlns:rdf="http://www.w3.org/1999/02/22-rdf-syntax-ns#"
   xmlns:svg="http://www.w3.org/2000/svg"
   xmlns="http://www.w3.org/2000/svg"
   xmlns:xlink="http://www.w3.org/1999/xlink"
   xmlns:sodipodi="http://sodipodi.sourceforge.net/DTD/sodipodi-0.dtd"
   xmlns:inkscape="http://www.inkscape.org/namespaces/inkscape"
   width="282.22223mm"
   height="282.18906mm"
   viewBox="0 0 1000 999.88248"
   id="svg7571"
   version="1.1"
   inkscape:version="0.91 r13725"
   sodipodi:docname="emblem.svg">
  <defs
     id="defs7573">
    <linearGradient
       inkscape:collect="always"
       id="linearGradient8331">
      <stop
         style="stop-color:#40706b;stop-opacity:1"
         offset="0"
         id="stop8333" />
      <stop
         style="stop-color:#b5f7f7;stop-opacity:1"
         offset="1"
         id="stop8335" />
    </linearGradient>
    <radialGradient
       inkscape:collect="always"
       xlink:href="#linearGradient8331"
       id="radialGradient8337"
       cx="273.27011"
       cy="873.56219"
       fx="273.27011"
       fy="873.56219"
       r="397.01562"
       gradientTransform="matrix(1.1411168,0,0,1.0103979,22.528743,-1.598591)"
       gradientUnits="userSpaceOnUse" />
  </defs>
  <sodipodi:namedview
     id="base"
     pagecolor="#ffffff"
     bordercolor="#666666"
     borderopacity="1.0"
     inkscape:pageopacity="0.0"
     inkscape:pageshadow="2"
     inkscape:zoom="1"
     inkscape:cx="639.87683"
     inkscape:cy="522.59642"
     inkscape:document-units="px"
     inkscape:current-layer="layer1"
     showgrid="false"
     fit-margin-top="0"
     fit-margin-left="0"
     fit-margin-right="0"
     fit-margin-bottom="0"
     inkscape:window-width="2560"
     inkscape:window-height="1247"
     inkscape:window-x="-8"
     inkscape:window-y="-8"
     inkscape:window-maximized="1" />
  <metadata
     id="metadata7576">
    <rdf:RDF>
      <cc:Work
         rdf:about="">
        <dc:format>image/svg+xml</dc:format>
        <dc:type
           rdf:resource="http://purl.org/dc/dcmitype/StillImage" />
        <dc:title></dc:title>
      </cc:Work>
    </rdf:RDF>
  </metadata>
  <g
     inkscape:label="Layer 1"
     inkscape:groupmode="layer"
     id="layer1"
     transform="translate(159.64605,70.270017)">
    <path
       style="fill:#ffffff;fill-opacity:1;opacity:0.5"
       d="m 333.37897,-70.259923 c -19.71343,0.09293 -38.47286,0.828245 -49.77899,2.233201 C 165.21939,-53.316174 61.569111,-2.2708743 -19.366539,81.178755 -95.867717,160.05618 -142.24446,257.11494 -157.10068,369.43333 c -2.21542,16.74937 -2.53673,24.34957 -2.54522,60.24741 -0.008,36.41075 0.28659,43.28522 2.59871,60.47919 5.09849,37.9146 11.89576,67.54472 23.03407,100.41828 61.756604,182.26809 222.296905,312.79435 413.28041,336.01433 26.17864,3.18282 27.1,3.22176 67.09411,2.87508 28.61225,-0.24803 39.74597,-0.80515 54.57302,-2.73022 124.53305,-16.16864 233.48004,-73.74692 315.42742,-166.70334 71.58294,-81.19962 114.72693,-184.02514 123.05117,-293.26703 1.92055,-25.20425 0.77531,-74.08551 -2.29337,-97.93546 C 822.87557,258.126 775.90327,159.91704 699.53705,81.178755 619.36708,-1.4814154 517.68115,-52.008895 400.33267,-67.498509 c -14.68528,-1.93841 -41.60786,-2.880898 -66.9537,-2.761414 z m 6.70629,15.184431 c 32.09218,0 52.59648,1.678996 81.58985,6.679545 190.14469,32.794674 342.23065,173.791517 388.89573,360.541657 10.10899,40.45546 14.27064,74.73536 14.27064,117.53503 0,32.21317 -1.66707,52.45503 -6.76869,82.16041 -22.24832,129.54576 -96.76647,245.30606 -205.26061,318.86414 -66.884,45.34675 -143.77215,73.32732 -224.22946,81.60323 -16.95479,1.74399 -55.90675,2.97326 -70.17868,2.21314 C 167.80761,906.50094 32.210651,832.77821 -54.342215,711.86644 -103.57099,643.09533 -133.33762,564.03678 -142.75648,477.03709 c -2.59513,-23.97061 -2.59614,-70.72458 -0.002,-94.7127 10.36156,-95.81844 45.28987,-181.65496 103.843858,-255.20007 C 27.332514,43.916179 120.04054,-15.529702 223.14307,-40.911825 264.60202,-51.11833 297.2675,-55.075492 340.08526,-55.075492 Z"
       id="path8277"
       inkscape:connector-curvature="0" />
    <path
       inkscape:connector-curvature="0"
       style="fill:url(#radialGradient8337);fill-opacity:1;opacity:0.5"
       d="m 339.5147,-39.304896 c -40.01824,0.01027 -46.32249,0.489858 -77.31067,5.883883 l -17.40203,3.028863 0,312.8911 0,312.88888 -11.12589,4.86981 c -14.1542,6.19529 -32.00567,16.36954 -46.19072,26.32592 -6.10545,4.28538 -11.30754,7.43578 -11.56049,7.00271 -0.25295,-0.43308 -24.31791,-42.1237 -53.4787,-92.64665 C 70.389522,450.74811 43.930811,404.91507 -18.526301,296.74063 c -17.212492,-29.81168 -36.255152,-62.80254 -42.314928,-73.3123 -6.059775,-10.50974 -11.289068,-19.11091 -11.622902,-19.1137 -1.247195,-0.0103 -22.714946,45.54681 -27.152795,57.62193 -4.710514,12.81702 -10.741704,31.93518 -14.981604,47.4923 l -2.36916,8.69433 22.967204,39.80314 c 12.631844,21.89193 31.569259,54.69471 42.083145,72.89552 19.12983,33.11608 61.968371,107.32038 98.485958,170.59697 10.684984,18.51462 28.864116,49.96574 40.398205,69.89118 11.534089,19.92542 21.266978,36.99756 21.627738,37.93767 0.36075,0.94011 -2.69959,8.51518 -6.79991,16.8337 -13.698522,27.79086 -23.703777,60.01138 -26.488615,85.30294 l -0.690901,6.27614 4.35942,2.79262 c 32.112976,20.5658 49.444456,29.99896 75.487546,41.08912 46.47387,19.79038 95.75481,31.86994 149.10742,36.54694 16.67817,1.46204 71.55892,0.43685 88.43655,-1.6515 47.82019,-5.91703 91.74652,-17.46861 132.14891,-34.75057 27.75093,-11.87037 44.68251,-20.98578 71.88144,-38.70437 l 15.17552,-9.88671 -0.71097,-6.27614 c -1.05463,-9.32114 -5.57739,-28.7355 -9.65937,-41.45686 -7.45431,-23.23109 -17.67366,-44.77128 -31.09767,-65.54735 l -6.83555,-10.57985 12.56119,-21.94198 c 6.90907,-12.06838 26.65448,-46.33336 43.87952,-76.14504 45.15892,-78.15739 102.57401,-177.57958 121.25257,-209.96549 8.86842,-15.37655 23.41239,-40.57723 32.31901,-56.00164 8.90661,-15.4244 16.19405,-28.86426 16.19405,-29.86517 0,-1.00092 -2.58004,-9.17788 -5.73233,-18.17095 -3.15229,-8.99306 -6.85795,-19.68783 -8.2352,-23.76732 -2.61917,-7.75817 -21.34568,-45.54405 -28.75525,-58.02089 -2.36524,-3.98278 -4.73265,-6.80704 -5.26207,-6.27614 -0.52941,0.53089 -14.15138,23.81591 -30.27079,51.74474 -16.11943,27.92884 -34.94992,60.53625 -41.84468,72.46092 -6.89474,11.92467 -21.12804,36.57279 -31.63033,54.77361 -10.50229,18.20081 -32.59203,56.45675 -49.08808,85.0132 -16.49607,28.55645 -44.62506,77.33919 -62.50734,108.4061 -17.88228,31.0669 -33.08952,57.08454 -33.79444,57.81584 -0.96815,1.00437 -3.37524,0.0678 -9.83991,-3.82453 -13.44913,-8.09765 -33.54662,-17.51227 -48.48855,-22.71535 l -13.70232,-4.77174 -0.2875,-310.42389 -0.28752,-310.421658 -3.13583,-0.624049 c -1.7248,-0.342945 -11.09514,-1.793413 -20.82316,-3.224992 -15.68489,-2.308193 -22.01512,-2.602983 -55.91472,-2.594257 z"
       id="path8162-72" />
    <path
       style="fill:#3e6e69;opacity:0.5"
       d="m 389.48982,-37.530821 -0.77783,0.581702 c 0.2258,0.03917 0.46376,0.07849 0.54381,0.109209 1.37867,0.529045 1.60916,46.2240069 1.60916,319.75341 l 0,319.13605 7.70253,7.58219 c 6.77977,6.67391 8.7962,7.94446 16.83148,10.59322 16.22,5.34676 39.80432,16.48189 56.48528,26.67138 3.53955,2.16213 5.6852,2.4415 18.8574,2.44492 l 14.86349,0.004 8.12601,-8.27309 c 6.91365,-7.03826 10.51031,-12.44599 24.09494,-36.23046 8.7824,-15.37656 23.38079,-40.79493 32.4416,-56.48528 9.06081,-15.69036 31.14685,-53.9463 49.07916,-85.01321 17.9323,-31.0669 48.624,-84.21442 68.20402,-118.10559 19.58,-33.89117 43.63657,-75.60919 53.46087,-92.70683 9.82431,-17.09763 18.18582,-31.09086 18.58105,-31.09543 0.018,-2e-4 0.0661,0.0688 0.0958,0.0958 l 0.10698,-0.91378 c -5.11109,-10.15219 -10.26777,-19.98011 -13.40366,-25.26058 -2.36524,-3.98279 -4.73265,-6.80705 -5.26207,-6.27615 -0.52941,0.5309 -14.15139,23.81591 -30.27079,51.74474 -16.11943,27.92884 -34.94992,60.53625 -41.84468,72.46092 -6.89474,11.92467 -21.12804,36.5728 -31.63033,54.77361 -10.50229,18.20081 -32.59201,56.45675 -49.08808,85.0132 -16.49604,28.55645 -44.62506,77.33919 -62.50734,108.4061 -17.88228,31.0669 -33.08952,57.08454 -33.79444,57.81585 -0.96815,1.00436 -3.37524,0.0678 -9.83991,-3.82454 -13.44913,-8.09765 -33.54662,-17.51227 -48.48855,-22.71535 l -13.70232,-4.77174 -0.2875,-310.42389 -0.28752,-310.421663 -3.13583,-0.624048 c -1.7248,-0.342946 -11.09514,-1.793414 -20.82316,-3.224993 -2.12622,-0.312895 -4.05761,-0.577244 -5.9396,-0.820177 z m -115.15251,2.072731 c -3.68215,0.593181 -7.58556,1.245464 -12.13328,2.037073 l -17.40203,3.028863 0,312.891104 0,312.88888 -11.12589,4.86981 c -14.1542,6.19529 -32.00567,16.36954 -46.19072,26.32592 -6.10545,4.28538 -11.30753,7.43578 -11.56049,7.00271 -0.25295,-0.43265 -24.31791,-42.1237 -53.4787,-92.64664 -52.056678,-90.19151 -78.515389,-136.02456 -140.972501,-244.199 -17.212492,-29.81168 -36.255152,-62.80254 -42.314928,-73.3123 -6.059775,-10.50974 -11.289068,-19.11091 -11.622902,-19.1137 -0.776804,-0.006 -9.397919,17.66476 -16.862676,33.91256 l 0.03566,0.99179 0.316482,-0.68868 32.704591,56.77725 c 34.841502,60.48701 80.238108,139.1431 119.046121,206.26355 21.607686,37.37157 31.806965,55.09454 71.250703,123.81117 10.12655,17.64187 14.34801,23.84654 20.37741,29.95209 l 7.6067,7.70254 14.86349,-0.009 14.86572,-0.009 9.62371,-6.8935 c 13.54839,-9.70512 29.36303,-18.83368 44.00878,-25.40323 10.59311,-4.75167 13.77052,-6.82623 20.35512,-13.29669 l 7.80283,-7.6691 -0.14933,-322.53934 c -0.11857,-258.581361 0.11717,-320.467365 1.26816,-322.468026 l -0.31203,-0.207274 z m 501.22665,292.21506 -14.71416,25.36756 c -8.12187,14.00098 -24.67435,42.65903 -36.78096,63.68412 -12.10661,21.02508 -27.51198,47.7272 -34.23574,59.33808 -6.72375,11.61086 -22.89503,39.59674 -35.93626,62.19086 -13.04123,22.5941 -29.20705,50.58001 -35.92289,62.19087 -6.71584,11.61085 -20.0687,34.71847 -29.6735,51.35026 -9.6048,16.63176 -25.86367,44.66821 -36.13017,62.30453 l -18.66572,32.06716 0.0334,14.14807 0.0312,14.15029 6.84224,10.27005 c 8.6146,12.93127 21.2237,37.65135 26.69144,52.33091 8.48588,22.7825 15.88072,55.10991 14.84566,63.36541 l 0.63742,2.01033 c 4.26598,-2.64746 8.66335,-5.42423 13.45047,-8.54278 l 15.17552,-9.8867 -0.71097,-6.27615 c -1.05463,-9.32114 -5.57739,-28.7355 -9.65937,-41.45686 -7.45431,-23.23108 -17.67366,-44.77127 -31.09767,-65.54735 l -6.83555,-10.57985 12.56119,-21.94198 c 6.90907,-12.06838 26.65448,-46.33336 43.87952,-76.14503 45.15892,-78.1574 102.57401,-177.57959 121.25257,-209.9655 8.86842,-15.37655 23.41239,-40.57723 32.31901,-56.00164 8.90661,-15.4244 16.19405,-28.86425 16.19405,-29.86517 0,-1.00092 -2.58004,-9.17787 -5.73233,-18.17095 -2.68227,-7.65216 -5.29897,-15.23115 -7.00716,-20.22362 l -0.81127,-0.16492 z m -879.84118,19.20285 -0.24962,0.17607 c -3.53629,10.71082 -7.21054,22.79478 -10.07169,33.29298 l -2.36916,8.69432 22.967208,39.80314 c 12.63184,21.89193 31.569255,54.69471 42.083141,72.89552 19.12983,33.11608 61.968371,107.32039 98.485958,170.59697 10.684984,18.51462 28.864116,49.96574 40.398205,69.89118 11.534089,19.92543 21.266978,36.99756 21.627738,37.93767 0.36075,0.94011 -2.69959,8.51519 -6.79991,16.8337 -13.698522,27.79086 -23.703777,60.01138 -26.488615,85.30294 l -0.690901,6.27614 4.35942,2.79263 c 9.412057,6.02766 17.475634,11.02153 24.939646,15.45856 l 0.49031,-0.82464 -0.25184,-0.13149 0.73548,-8.07698 c 2.50224,-27.49823 14.48738,-65.27728 29.38376,-92.61767 l 4.40623,-8.08365 0,-15.06185 0,-15.06185 -15.80625,-27.06141 C 104.32026,637.23061 64.89299,569.17667 37.446369,521.54064 26.778741,503.02601 1.7271762,459.63505 -18.223197,425.11627 -38.173571,390.59749 -65.708252,342.944 -79.411125,319.21974 l -24.912895,-43.13511 0.0468,-0.12481 z"
       id="path8296"
       inkscape:connector-curvature="0" />
  </g>
</svg>
