<?xml version="1.0" encoding="UTF-8" standalone="no"?>
<!-- Created with Inkscape (http://www.inkscape.org/) -->

<svg
   xmlns:dc="http://purl.org/dc/elements/1.1/"
   xmlns:cc="http://creativecommons.org/ns#"
   xmlns:rdf="http://www.w3.org/1999/02/22-rdf-syntax-ns#"
   xmlns:svg="http://www.w3.org/2000/svg"
   xmlns="http://www.w3.org/2000/svg"
   xmlns:sodipodi="http://sodipodi.sourceforge.net/DTD/sodipodi-0.dtd"
   xmlns:inkscape="http://www.inkscape.org/namespaces/inkscape"
   width="282.22223mm"
   height="304.8457mm"
   viewBox="0 0 1000 1080.1619"
   id="svg8341"
   version="1.1"
   inkscape:version="0.91 r13725"
   sodipodi:docname="emblem.svg">
  <defs
     id="defs8343" />
  <sodipodi:namedview
     id="base"
     pagecolor="#ffffff"
     bordercolor="#666666"
     borderopacity="1.0"
     inkscape:pageopacity="0.0"
     inkscape:pageshadow="2"
     inkscape:zoom="1"
     inkscape:cx="370.50178"
     inkscape:cy="497.95432"
     inkscape:document-units="px"
     inkscape:current-layer="layer1"
     showgrid="false"
     fit-margin-top="0"
     fit-margin-left="0"
     fit-margin-right="0"
     fit-margin-bottom="0"
     inkscape:window-width="2560"
     inkscape:window-height="1247"
     inkscape:window-x="-8"
     inkscape:window-y="-8"
     inkscape:window-maximized="1" />
  <metadata
     id="metadata8346">
    <rdf:RDF>
      <cc:Work
         rdf:about="">
        <dc:format>image/svg+xml</dc:format>
        <dc:type
           rdf:resource="http://purl.org/dc/dcmitype/StillImage" />
        <dc:title></dc:title>
      </cc:Work>
    </rdf:RDF>
  </metadata>
  <g
     inkscape:label="Layer 1"
     inkscape:groupmode="layer"
     id="layer1"
     transform="translate(48.35714,28.085591)">
    <path
       style="fill:#849439;opacity:0.5"
       d="m 16.753425,142.37375 0.0025,3.6855 c 0.0012,2.02631 -2.51129,42.08018 -5.58344,89.00876 L 5.5866069,320.39125 228.30523,543.11469 c 122.49579,122.4971 222.99839,222.72103 223.33763,222.72103 0.33924,0 100.83957,-100.22393 223.33528,-222.72103 l 222.72103,-222.72344 -5.58583,-85.32324 c -3.07215,-46.92858 -5.58485,-86.98245 -5.58344,-89.00876 l 0.002,-3.6855 L 669.08758,359.81607 451.64286,577.25839 234.19814,359.81607 16.753425,142.37375 Z"
       id="path9012"
       inkscape:connector-curvature="0" />
    <path
       style="fill:#849439;opacity:0.5"
       d="m 3.1271352,362.88972 c -0.061941,0.33713 -2.76184645,40.13888 -5.9985369,88.44969 L -8.7547714,539.17725 221.13572,769.2141 c 126.43985,126.52027 230.16795,230.03687 230.50714,230.03687 0.33919,0 104.06729,-103.5166 230.50714,-230.03687 l 229.89049,-230.03685 -5.88337,-87.83784 c -3.23669,-48.31081 -5.93659,-88.11256 -5.99854,-88.44969 -0.0619,-0.33715 -101.00343,100.2754 -224.31425,223.58482 L 451.64286,810.67362 227.44139,586.47454 C 104.13057,463.16512 3.1890885,362.55257 3.1271352,362.88972 Z"
       id="path9010"
       inkscape:connector-curvature="0" />
    <path
       inkscape:connector-curvature="0"
       style="fill:#ffffff;fill-opacity:1;opacity:0.5"
       d="m 451.64286,-28.085591 c -2.04575,0.0025 -469.393129,125.314411 -470.139262,126.060541 -0.58706,0.587064 -29.860738,448.76932 -29.860738,457.17042 l 0,6.1425 245.39312,245.39552 245.39073,245.39301 9.21375,0 9.21376,0 245.39552,-245.39301 245.39312,-245.39072 0,-6.05853 c 0,-3.33265 -5.25689,-86.81107 -11.68276,-185.50608 C 923.41549,115.6194 922.2661,98.456523 921.76533,97.955749 921.02925,97.219667 453.64329,-28.087998 451.64286,-28.085591 Z m 0.0168,20.9301111 225.72751,60.4580959 c 124.15103,33.253231 225.87301,60.590724 226.04662,60.748424 0.17361,0.15771 6.73823,98.84723 14.58845,219.30906 L 932.29394,552.38124 692.2779,792.39967 C 560.26827,924.41063 451.98199,1032.4204 451.64286,1032.4204 c -0.33913,0 -108.63014,-108.0145 -240.64708,-240.03273 L -29.034639,552.35484 -27.604587,531.02403 C -26.81786,519.29226 -20.387279,420.73574 -13.313662,312.0101 -6.2400454,203.28446 -0.31162526,114.20142 -0.14086604,114.04624 0.02989317,113.89106 101.75318,86.555515 225.91296,53.302616 L 451.65965,-7.1554799 Z"
       id="path8979" />
  </g>
</svg>
